<svg width="32" height="33" viewBox="0 0 32 33" fill="none" xmlns="http://www.w3.org/2000/svg">
<g id="Frame" clip-path="url(#clip0_40000986_1680)">
<path id="Vector" fill-rule="evenodd" clip-rule="evenodd" d="M15.9995 0.343628C27.8236 0.343628 31.9995 4.53919 31.9995 16.3436C31.9995 28.1034 27.754 32.3436 15.9995 32.3436C4.27965 32.3436 -0.000488281 28.049 -0.000488281 16.3436C-0.000488281 4.59338 4.20984 0.343628 15.9995 0.343628ZM14.8166 18.2183C14.0837 19.964 12.358 21.19 10.346 21.19C7.66938 21.19 5.49951 19.0202 5.49951 16.3434C5.49951 13.6668 7.66938 11.4969 10.346 11.4969C12.358 11.4969 14.0837 12.7229 14.8166 14.4686C15.5819 11.5937 18.0648 9.41923 21.0994 9.1111C21.5916 9.06116 21.8424 9.10429 21.8424 9.67943V14.0716C21.8424 14.3987 21.7809 14.5616 21.0994 14.5616C20.0858 14.5616 19.4334 15.463 19.4334 16.3434C19.4334 17.3472 20.0194 18.1609 21.0994 18.1609C21.8424 18.1609 21.8424 17.7454 21.8424 17.2332V15.1318C21.8424 14.728 21.9844 14.526 22.3631 14.526H24.6775C25.0486 14.526 25.0659 14.533 25.279 14.8286C25.279 14.8286 26.2087 16.1116 26.3708 16.3434C26.5328 16.5754 26.5518 16.6464 26.3708 16.9165C26.1898 17.1867 25.279 18.4586 25.279 18.4586C25.0666 18.7587 25.0515 18.7668 24.6775 18.7668H22.9396C22.0336 18.7668 21.8424 19.3937 21.8424 19.9594V22.856C21.8424 23.5311 21.723 23.6391 21.0994 23.5758C18.0648 23.2677 15.5819 21.0932 14.8166 18.2183ZM11.9616 16.3434C11.9616 17.2357 11.2383 17.959 10.346 17.959C9.45385 17.959 8.73058 17.2357 8.73058 16.3434C8.73058 15.4512 9.45385 14.7279 10.346 14.7279C11.2383 14.7279 11.9616 15.4512 11.9616 16.3434Z" fill="black"/>
</g>
<defs>
<clipPath id="clip0_40000986_1680">
<rect width="32" height="32" fill="white" transform="translate(0 0.343628)"/>
</clipPath>
</defs>
</svg>
